<?xml version="1.0" encoding="UTF-8" standalone="no" ?>
<!DOCTYPE svg PUBLIC "-//W3C//DTD SVG 1.1//EN" "http://www.w3.org/Graphics/SVG/1.1/DTD/svg11.dtd">
<svg xmlns="http://www.w3.org/2000/svg" xmlns:xlink="http://www.w3.org/1999/xlink" version="1.1" width="1280" height="1024" viewBox="0 0 1280 1024" xml:space="preserve">
<desc>Created with Fabric.js 5.3.0</desc>
<defs>
</defs>
<g transform="matrix(1 0 0 1 640 512)" id="background-logo"  >
<rect style="stroke: none; stroke-width: 0; stroke-dasharray: none; stroke-linecap: butt; stroke-dashoffset: 0; stroke-linejoin: miter; stroke-miterlimit: 4; fill: rgb(255,255,255); fill-opacity: 0; fill-rule: nonzero; opacity: 1;"  paint-order="stroke"  x="-640" y="-512" rx="0" ry="0" width="1280" height="1024" />
</g>
<g transform="matrix(1.9211538461538462 0 0 1.9211538461538462 640 386.9809512012593)" id="logo-logo"  >
<g style=""  paint-order="stroke"   >
		<g transform="matrix(0.8686155233314843 0 0 -0.8686155233314843 12.16828680044273 2.988494737346258)"  >
<path style="stroke: none; stroke-width: 1; stroke-dasharray: none; stroke-linecap: butt; stroke-dashoffset: 0; stroke-linejoin: miter; stroke-miterlimit: 4; fill: rgb(45,45,73); fill-rule: nonzero; opacity: 1;"  paint-order="stroke"  transform=" translate(-0.04050000000000864, 138.25000000000003)" d="M 0 0 C -67.996 0 -124.484 -49.104 -136.046 -113.771 L 3.959 -113.771 C 10.428 -113.771 16.356 -116.117 20.948 -119.997 C 26.678 -124.837 30.326999999999998 -132.068 30.326999999999998 -140.139 C 30.326999999999998 -152.113 20.583999999999996 -161.854 8.61 -161.854 C -1.3120000000000012 -161.854 -9.385000000000002 -153.781 -9.385000000000002 -143.858 C -9.385000000000002 -135.579 -2.6460000000000017 -128.84 5.632999999999999 -128.84 C 12.602 -128.84 18.271 -134.511 18.271 -141.479 L 12.047 -141.479 C 12.047 -137.943 9.169 -135.066 5.633000000000001 -135.066 C 0.785000000000001 -135.066 -3.158999999999999 -139.01 -3.158999999999999 -143.858 C -3.158999999999999 -150.35 2.1210000000000013 -155.62800000000001 8.610000000000001 -155.62800000000001 C 17.151000000000003 -155.62800000000001 24.101 -148.68 24.101 -140.139 C 24.101 -129.03300000000002 15.065 -119.99700000000001 3.9589999999999996 -119.99700000000001 C -6.524000000000001 -119.99700000000001 -15.568000000000001 -126.24800000000002 -19.659 -135.21400000000003 C -20.554 -137.17400000000004 -21.209999999999997 -139.26000000000002 -21.593 -141.44000000000003 L -27.896 -141.44000000000003 L -138.16899999999998 -141.44000000000003 C -138.118 -143.68500000000003 -138.01799999999997 -145.91400000000002 -137.85999999999999 -148.13000000000002 L -21.167999999999992 -148.13000000000002 C -20.74599999999999 -153.02300000000002 -18.089999999999993 -157.28700000000003 -14.223999999999993 -159.889 L -136.553 -159.889 C -134.773 -171.198 -131.635 -182.05100000000002 -127.291 -192.274 L -127.291 -162.91 L -112.941 -162.91 L -112.941 -217.937 C -109.712 -222.50400000000002 -106.239 -226.889 -102.494 -231.02200000000002 L -102.494 -162.91000000000003 L -88.143 -162.91000000000003 L -88.143 -244.75600000000003 C -84.791 -247.53400000000002 -81.303 -250.15000000000003 -77.696 -252.60700000000003 L -77.696 -162.91000000000003 L -63.346999999999994 -162.91000000000003 L -63.346999999999994 -261.12300000000005 C -59.940999999999995 -262.88200000000006 -56.464999999999996 -264.51900000000006 -52.89999999999999 -265.99700000000007 L -52.89999999999999 -162.91000000000008 L -38.54899999999999 -162.91000000000008 L -38.54899999999999 -271.0130000000001 C -35.11399999999999 -272.0080000000001 -31.639999999999993 -272.90600000000006 -28.102999999999994 -273.63900000000007 L -28.102999999999994 -162.91000000000008 L -13.752999999999995 -162.91000000000008 L -13.752999999999995 -275.81500000000005 C -9.227999999999994 -276.26500000000004 -4.642999999999995 -276.50000000000006 5.329070518200751e-15 -276.50000000000006 C 76.355 -276.50000000000006 138.25 -214.60500000000005 138.25 -138.25000000000006 C 138.25 -61.899 76.355 0 0 0" stroke-linecap="round" />
</g>
		<g transform="matrix(0.8686155233314843 0 0 -0.8686155233314843 -5.7626816236346485 2.842171e-14)"  >
<path style="stroke: none; stroke-width: 1; stroke-dasharray: none; stroke-linecap: butt; stroke-dashoffset: 0; stroke-linejoin: miter; stroke-miterlimit: 4; fill: rgb(166,167,175); fill-rule: nonzero; opacity: 1;"  paint-order="stroke"  transform=" translate(-127.94299999999998, -2.205999999999989)" d="M 0 0 C 0 80.681 65.405 146.086 146.085 146.086 C 200.81300000000002 146.086 248.50400000000002 115.98800000000001 273.527 71.44500000000001 C 248.194 121.608 196.197 156.01 136.16299999999998 156.01 C 51.219999999999985 156.01 -17.64100000000002 87.14999999999999 -17.64100000000002 2.205999999999989 C -17.64100000000002 -82.73500000000001 51.219999999999985 -151.598 136.16299999999998 -151.598 C 171.99099999999999 -151.598 204.95999999999998 -139.347 231.106 -118.80200000000002 C 207.155 -135.97400000000002 177.803 -146.08400000000003 146.08499999999998 -146.08400000000003 C 65.405 -146.084 0 -80.677 0 0" stroke-linecap="round" />
</g>
</g>
</g>
<g transform="matrix(1.9211538461538462 0 0 1.9211538461538462 642.0849021935096 741.6544069986215)" id="text-logo"  >
<g style=""  paint-order="stroke"   >
		<g transform="matrix(1 0 0 1 5.684342e-14 0)" id="text-logo-path-0"  >
<path style="stroke: none; stroke-width: 0; stroke-dasharray: none; stroke-linecap: butt; stroke-dashoffset: 0; stroke-linejoin: miter; stroke-miterlimit: 4; fill: rgb(45,45,73); fill-rule: nonzero; opacity: 1;"  paint-order="stroke"  transform=" translate(-303.99, 19.71)" d="M 13.93 0 L 4.42 0 L 4.42 -39.45 L 13.93 -39.45 L 13.93 -24.13 L 31.27 -24.13 L 31.27 -39.45 L 40.84 -39.45 L 40.84 0 L 31.27 0 L 31.27 -15.32 L 13.93 -15.32 L 13.93 0 Z M 57.41 0 L 47.32 0 L 64.2 -39.45 L 74.79 -39.45 L 91.73 0 L 81.59 0 L 79.04 -6.15 L 60.01 -6.15 L 57.41 0 Z M 69.58 -28.66 L 63.32 -13.93 L 75.73 -13.93 L 69.58 -28.66 Z M 128.4 0 L 98.19 0 L 98.19 -39.45 L 107.7 -39.45 L 107.7 -8.81 L 128.4 -8.81 L 128.4 0 Z M 144.69 0 L 135.17 0 L 135.17 -39.45 L 144.69 -39.45 L 144.69 -22.09 L 159.75 -39.45 L 171.71 -39.45 L 158.14 -23.53 L 174.59 0 L 162.25 0 L 151.46 -16.28 L 144.69 -8.86 L 144.69 0 Z M 190.03 0 L 180.51 0 L 180.51 -39.45 L 190.03 -39.45 L 190.03 0 Z M 206.6 0 L 196.51 0 L 213.39 -39.45 L 223.99 -39.45 L 240.92 0 L 230.78 0 L 228.23 -6.15 L 209.2 -6.15 L 206.6 0 Z M 218.77 -28.66 L 212.52 -13.93 L 224.92 -13.93 L 218.77 -28.66 Z M 264.82 0 L 247.38 0 L 247.38 -39.39 L 264.82 -39.45 Q 264.91 -39.45 264.99 -39.45 L 264.99 -39.45 Q 269.67 -39.48 273.55 -38.01 L 273.55 -38.01 Q 277.48 -36.53 280.12 -33.9 Q 282.75 -31.27 284.19 -27.64 Q 285.64 -24.02 285.64 -19.77 L 285.64 -19.77 Q 285.64 -14.08 283.02 -9.57 Q 280.4 -5.07 275.64 -2.53 Q 270.88 0 264.82 0 L 264.82 0 Z M 256.89 -30.61 L 256.89 -8.81 L 264.82 -8.81 Q 269.81 -8.81 272.91 -11.82 Q 276.01 -14.84 276.01 -19.77 L 276.01 -19.77 Q 276.01 -24.98 272.99 -27.8 Q 269.98 -30.61 264.82 -30.61 L 264.82 -30.61 L 256.89 -30.61 Z M 296.6 0 L 286.52 0 L 303.4 -39.45 L 313.99 -39.45 L 330.92 0 L 320.78 0 L 318.24 -6.15 L 299.2 -6.15 L 296.6 0 Z M 308.78 -28.66 L 302.52 -13.93 L 314.92 -13.93 L 308.78 -28.66 Z M 346.9 0 L 337.38 0 L 337.38 -39.45 L 346.9 -39.45 L 346.9 -22.09 L 361.96 -39.45 L 373.91 -39.45 L 360.35 -23.53 L 376.8 0 L 364.45 0 L 353.66 -16.28 L 346.9 -8.86 L 346.9 0 Z M 392.24 0 L 382.72 0 L 382.72 -39.45 L 392.24 -39.45 L 392.24 0 Z M 399.23 -13.79 L 399.23 -13.79 L 408.69 -13.79 Q 408.72 -13.54 408.82 -13.11 Q 408.92 -12.69 409.47 -11.61 Q 410.02 -10.54 410.86 -9.71 Q 411.69 -8.89 413.39 -8.21 Q 415.09 -7.53 417.27 -7.53 L 417.27 -7.53 Q 420.22 -7.53 421.65 -8.57 Q 423.08 -9.6 423.08 -11.02 L 423.08 -11.02 Q 423.08 -11.75 422.67 -12.35 Q 422.26 -12.94 421.7 -13.34 Q 421.15 -13.74 420.1 -14.12 Q 419.06 -14.5 418.26 -14.71 Q 417.47 -14.92 416.11 -15.26 L 416.11 -15.26 Q 410.47 -16.6 407.81 -17.7 L 407.81 -17.7 Q 399.83 -21.01 399.83 -27.61 L 399.83 -27.61 Q 399.83 -31.15 401.96 -34.03 Q 404.1 -36.9 407.77 -38.52 Q 411.44 -40.13 415.88 -40.13 L 415.88 -40.13 Q 419.57 -40.13 422.64 -38.94 Q 425.71 -37.75 427.62 -35.84 Q 429.53 -33.93 430.57 -31.62 Q 431.6 -29.31 431.6 -26.96 L 431.6 -26.96 L 422.14 -26.96 Q 422.14 -28.63 420.37 -30.12 Q 418.6 -31.61 415.77 -31.61 L 415.77 -31.61 Q 413.42 -31.61 411.44 -30.63 Q 409.46 -29.65 409.46 -28.07 L 409.46 -28.07 Q 409.46 -26.73 411.17 -25.96 Q 412.88 -25.18 417.61 -23.96 L 417.61 -23.96 Q 422.99 -22.57 425.37 -21.5 L 425.37 -21.5 Q 431.83 -18.58 432.51 -13 L 432.51 -13 Q 432.59 -12.29 432.59 -11.55 L 432.59 -11.55 Q 432.59 -5.98 428.19 -2.63 Q 423.79 0.71 416.76 0.71 L 416.76 0.71 Q 413.19 0.71 410.21 -0.21 Q 407.22 -1.13 405.24 -2.62 Q 403.25 -4.11 401.87 -6.03 Q 400.48 -7.96 399.85 -9.93 Q 399.23 -11.89 399.23 -13.79 Z M 451.68 -11.13 L 451.68 -11.13 Q 451.68 -16.26 457.15 -21.41 L 457.15 -21.41 Q 455.5 -22.91 454.36 -25.11 Q 453.21 -27.3 453.21 -29.71 L 453.21 -29.71 Q 453.21 -31.75 454.14 -33.59 Q 455.08 -35.43 456.81 -36.9 Q 458.53 -38.37 461.27 -39.25 Q 464 -40.13 467.34 -40.13 L 467.34 -40.13 Q 470.66 -40.13 473.3 -39.27 Q 475.95 -38.4 477.57 -37.07 Q 479.18 -35.74 480.26 -34.04 Q 481.33 -32.34 481.74 -30.8 Q 482.15 -29.25 482.15 -27.84 L 482.15 -27.84 L 473.09 -27.84 Q 473.09 -29.62 471.77 -31.05 Q 470.46 -32.48 467.88 -32.48 L 467.88 -32.48 Q 466.07 -32.48 464.71 -31.76 Q 463.35 -31.04 463.35 -29.82 L 463.35 -29.82 Q 463.35 -27.73 468.05 -23.48 L 468.05 -23.48 Q 475.16 -17.19 477.57 -15.01 L 477.57 -15.01 Q 477.85 -16.65 477.85 -19.2 L 477.85 -19.2 L 486.88 -19.2 Q 486.88 -12.94 484.65 -8.81 L 484.65 -8.81 L 488.81 -5.1 L 482.27 0.57 L 478.9 -2.44 Q 474.28 0.71 467.88 0.71 L 467.88 0.71 Q 460.91 0.71 456.3 -2.59 Q 451.68 -5.89 451.68 -11.13 Z M 461.68 -12.35 L 461.68 -12.35 Q 461.68 -10.22 463.53 -8.88 Q 465.39 -7.53 468.28 -7.53 L 468.28 -7.53 Q 470.51 -7.53 472.21 -8.24 L 472.21 -8.24 L 463.46 -15.89 Q 461.68 -14.3 461.68 -12.35 Z M 507.33 -20.02 L 507.33 -20.02 Q 507.33 -24.1 508.94 -27.78 Q 510.56 -31.46 513.36 -34.18 Q 516.17 -36.9 520.16 -38.52 Q 524.15 -40.13 528.68 -40.13 L 528.68 -40.13 Q 534.86 -40.13 539.69 -37.48 Q 544.51 -34.83 547.23 -30.27 L 547.23 -30.27 L 539.16 -25.57 Q 537.72 -28.35 535.03 -29.95 Q 532.34 -31.55 528.68 -31.55 L 528.68 -31.55 Q 523.56 -31.55 520.26 -28.25 Q 516.96 -24.95 516.96 -20.02 L 516.96 -20.02 Q 516.96 -16.91 518.43 -14.22 Q 519.9 -11.53 522.61 -9.88 Q 525.31 -8.24 528.68 -8.24 L 528.68 -8.24 Q 532.2 -8.24 534.87 -9.86 Q 537.55 -11.47 539.05 -14.22 L 539.05 -14.22 L 547.12 -9.57 Q 544.34 -4.93 539.53 -2.11 Q 534.72 0.71 528.68 0.71 L 528.68 0.71 Q 524.12 0.71 520.15 -0.91 Q 516.17 -2.52 513.36 -5.28 Q 510.56 -8.04 508.94 -11.87 Q 507.33 -15.69 507.33 -20.02 Z M 549.78 -19.71 L 549.78 -19.71 Q 549.78 -23.85 551.38 -27.61 Q 552.98 -31.38 555.7 -34.13 Q 558.42 -36.87 562.19 -38.5 Q 565.95 -40.13 570.12 -40.13 L 570.12 -40.13 Q 574.22 -40.13 578 -38.5 Q 581.78 -36.87 584.5 -34.13 Q 587.22 -31.38 588.85 -27.6 Q 590.48 -23.82 590.48 -19.71 L 590.48 -19.71 Q 590.48 -15.58 588.86 -11.8 Q 587.25 -8.01 584.52 -5.28 Q 581.78 -2.55 578 -0.92 Q 574.22 0.71 570.12 0.71 L 570.12 0.71 Q 564.57 0.71 559.88 -2.04 Q 555.19 -4.79 552.49 -9.47 Q 549.78 -14.16 549.78 -19.71 Z M 558.48 -19.71 L 558.48 -19.71 Q 558.48 -14.9 561.89 -11.51 Q 565.3 -8.13 570.12 -8.13 L 570.12 -8.13 Q 574.87 -8.13 578.27 -11.51 Q 581.67 -14.9 581.67 -19.71 L 581.67 -19.71 Q 581.67 -24.47 578.27 -27.87 Q 574.87 -31.27 570.12 -31.27 L 570.12 -31.27 Q 565.3 -31.27 561.89 -27.88 Q 558.48 -24.5 558.48 -19.71 Z M 592.21 -4.87 L 592.21 -4.87 Q 592.21 -7.25 593.85 -8.96 Q 595.49 -10.68 597.76 -10.68 L 597.76 -10.68 Q 600.16 -10.68 601.86 -8.98 Q 603.56 -7.28 603.56 -4.87 L 603.56 -4.87 Q 603.56 -2.61 601.85 -0.95 Q 600.14 0.71 597.76 0.71 L 597.76 0.71 Q 595.52 0.71 593.86 -0.95 Q 592.21 -2.61 592.21 -4.87 Z" stroke-linecap="round" />
</g>
</g>
</g>
<g transform="matrix(1.9211538461538462 0 0 1.9211538461538462 640.0672403846155 837.88672949572)" id="tagline-f604a695-0136-416b-a565-f92c191cc54b-logo"  >
<g style=""  paint-order="stroke"   >
		<g transform="matrix(1 0 0 1 0 0)" id="tagline-f604a695-0136-416b-a565-f92c191cc54b-logo-path-0"  >
<path style="stroke: rgb(166,167,175); stroke-width: 2; stroke-dasharray: none; stroke-linecap: butt; stroke-dashoffset: 0; stroke-linejoin: miter; stroke-miterlimit: 4; fill: rgb(166,167,175); fill-rule: nonzero; opacity: 1;"  paint-order="stroke"  transform=" translate(-247.39999999999998, 12.915000000000001)" d="M 27.02 -6.79 L 24.08 -6.79 C 22.12 -3.92 18.62 -2.03 15.12 -2.03 C 9.03 -2.03 4.13 -7.28 4.13 -13.02 C 4.13 -18.83 9.24 -23.8 14.98 -23.8 C 18.41 -23.8 22.05 -22.19 24.01 -19.25 L 26.88 -19.25 C 25.13 -23.17 20.16 -26.32 14.91 -26.32 C 7.56 -26.32 1.54 -20.3 1.54 -13.02 C 1.54 -5.6 7.42 0.49 15.12 0.49 C 20.3 0.49 24.71 -2.66 27.02 -6.79 Z M 50.19 -8.68 C 50.12 -11.41 49.63 -14 47.67 -16.17 C 45.78 -18.27 43.19 -19.6 40.25 -19.6 C 34.58 -19.6 30.24 -15.05 30.24 -9.52 C 30.24 -3.85 34.79 0.49 40.32 0.49 C 44.45 0.49 48.23 -2.38 49.63 -6.23 L 46.9 -6.23 C 45.85 -3.64 42.77 -2.03 40.11 -2.03 C 36.26 -2.03 32.9 -5.32 32.9 -8.68 Z M 47.6 -10.99 L 32.83 -10.99 C 33.53 -14.42 36.47 -17.08 40.25 -17.08 C 43.75 -17.08 46.97 -14.42 47.6 -10.99 Z M 62.09 -17.01 L 62.09 -19.6 C 59.29 -19.6 57.47 -18.27 56.56 -16.38 L 56.56 -19.18 L 54.11 -19.18 L 54.11 0 L 56.7 0 L 56.7 -11.55 C 56.7 -14.7 59.15 -16.87 62.09 -17.01 Z M 74.34 -16.8 L 74.34 -19.18 L 69.86 -19.18 L 69.86 -25.9 L 67.27 -25.9 L 67.27 -19.18 L 63.28 -19.18 L 63.28 -16.8 L 67.27 -16.8 L 67.27 0 L 69.86 0 L 69.86 -16.8 Z M 79.87 -21.49 L 79.87 -25.9 L 77.28 -25.9 L 77.28 -21.49 Z M 79.87 0 L 79.87 -19.18 L 77.28 -19.18 L 77.28 0 Z M 93.31 -16.8 L 93.31 -19.18 L 88.55 -19.18 C 88.55 -22.4 89.88 -23.52 93.24 -23.52 L 93.24 -25.9 C 88.83 -25.9 85.96 -24.08 85.96 -19.18 L 82.95 -19.18 L 82.95 -16.8 L 85.96 -16.8 L 85.96 0 L 88.55 0 L 88.55 -16.8 Z M 98.56 -21.49 L 98.56 -25.9 L 95.97 -25.9 L 95.97 -21.49 Z M 98.56 0 L 98.56 -19.18 L 95.97 -19.18 L 95.97 0 Z M 122.5 -8.68 C 122.43 -11.41 121.94 -14 119.98 -16.17 C 118.09 -18.27 115.5 -19.6 112.56 -19.6 C 106.89 -19.6 102.55 -15.05 102.55 -9.52 C 102.55 -3.85 107.1 0.49 112.63 0.49 C 116.76 0.49 120.54 -2.38 121.94 -6.23 L 119.21 -6.23 C 118.16 -3.64 115.08 -2.03 112.42 -2.03 C 108.57 -2.03 105.21 -5.32 105.21 -8.68 Z M 119.91 -10.99 L 105.14 -10.99 C 105.84 -14.42 108.78 -17.08 112.56 -17.08 C 116.06 -17.08 119.28 -14.42 119.91 -10.99 Z M 145.95 0 L 145.95 -25.9 L 143.36 -25.9 L 143.36 -15.75 C 142.38 -17.64 139.65 -19.6 135.94 -19.6 C 130.27 -19.6 125.65 -15.19 125.65 -9.59 C 125.65 -3.71 130.83 0.49 135.87 0.49 C 139.72 0.49 141.75 -1.12 143.5 -3.57 L 143.5 0 Z M 143.43 -9.66 C 143.43 -5.53 140 -2.03 135.87 -2.03 C 131.6 -2.03 128.24 -5.53 128.24 -9.66 C 128.24 -13.72 131.67 -17.08 135.8 -17.08 C 140 -17.08 143.43 -13.86 143.43 -9.66 Z M 178.43 -18.13 C 178.43 -20.72 177.38 -22.47 175.91 -23.8 C 174.09 -25.48 171.43 -25.9 168.7 -25.9 L 161.28 -25.9 L 161.28 0 L 163.87 0 L 163.87 -10.43 L 169.47 -10.43 C 174.44 -10.43 178.43 -13.02 178.43 -18.13 Z M 175.84 -18.2 C 175.84 -14.42 172.9 -12.81 169.12 -12.81 L 163.87 -12.81 L 163.87 -23.52 L 168.42 -23.52 C 171.43 -23.52 172.76 -23.31 174.37 -21.77 C 175.49 -20.79 175.84 -19.39 175.84 -18.2 Z M 198.8 0 L 198.8 -19.18 L 196.21 -19.18 L 196.21 -8.61 C 196.21 -4.9 194.04 -2.03 190.33 -2.03 C 186.55 -2.03 184.52 -4.9 184.52 -8.26 L 184.52 -19.18 L 181.93 -19.18 L 181.93 -8.26 C 181.93 -3.92 183.4 -2.8 184.03 -2.17 C 185.43 -0.77 187.11 0.49 190.05 0.49 C 192.78 0.49 195.02 -0.56 196.35 -3.01 L 196.35 0.07 Z M 223.58 -9.66 C 223.58 -15.26 218.89 -19.6 213.36 -19.6 C 208.74 -19.6 206.43 -16.8 206.01 -15.47 L 206.01 -25.9 L 203.42 -25.9 L 203.42 0 L 205.87 0 L 205.87 -3.43 C 207.06 -1.19 210.14 0.49 213.5 0.49 C 217.21 0.49 219.38 -0.98 221.69 -3.78 C 222.67 -4.9 223.58 -7.49 223.58 -9.66 Z M 220.99 -9.66 C 220.99 -5.32 217.56 -2.03 213.36 -2.03 C 209.37 -2.03 205.8 -5.04 205.8 -9.66 C 205.8 -14.21 209.51 -17.08 213.22 -17.08 C 217.63 -17.08 220.99 -13.86 220.99 -9.66 Z M 229.95 0 L 229.95 -25.9 L 227.36 -25.9 L 227.36 0 Z M 237.3 -21.49 L 237.3 -25.9 L 234.71 -25.9 L 234.71 -21.49 Z M 237.3 0 L 237.3 -19.18 L 234.71 -19.18 L 234.71 0 Z M 261.1 -5.6 L 258.23 -5.6 C 256.27 -2.94 254.17 -2.03 251.51 -2.03 C 247.03 -2.03 243.88 -5.6 243.88 -9.66 C 243.88 -13.93 247.45 -17.08 251.72 -17.08 C 254.03 -17.08 256.83 -15.82 258.23 -13.37 L 261.1 -13.37 C 259.56 -17.29 255.78 -19.6 251.65 -19.6 C 246.05 -19.6 241.29 -15.19 241.29 -9.59 C 241.29 -3.92 245.91 0.49 251.79 0.49 C 255.85 0.49 259.42 -1.89 261.1 -5.6 Z M 298.62 0 L 287.49 -25.9 L 284.62 -25.9 L 273.49 0 L 276.29 0 L 280 -8.68 L 292.04 -8.68 L 295.82 0 Z M 291.06 -11.06 L 281.05 -11.06 L 286.09 -22.89 Z M 320.25 -5.6 L 317.38 -5.6 C 315.42 -2.94 313.32 -2.03 310.66 -2.03 C 306.18 -2.03 303.03 -5.6 303.03 -9.66 C 303.03 -13.93 306.6 -17.08 310.87 -17.08 C 313.18 -17.08 315.98 -15.82 317.38 -13.37 L 320.25 -13.37 C 318.71 -17.29 314.93 -19.6 310.8 -19.6 C 305.2 -19.6 300.44 -15.19 300.44 -9.59 C 300.44 -3.92 305.06 0.49 310.94 0.49 C 315 0.49 318.57 -1.89 320.25 -5.6 Z M 343.35 -5.6 L 340.48 -5.6 C 338.52 -2.94 336.42 -2.03 333.76 -2.03 C 329.28 -2.03 326.13 -5.6 326.13 -9.66 C 326.13 -13.93 329.7 -17.08 333.97 -17.08 C 336.28 -17.08 339.08 -15.82 340.48 -13.37 L 343.35 -13.37 C 341.81 -17.29 338.03 -19.6 333.9 -19.6 C 328.3 -19.6 323.54 -15.19 323.54 -9.59 C 323.54 -3.92 328.16 0.49 334.04 0.49 C 338.1 0.49 341.67 -1.89 343.35 -5.6 Z M 366.66 -9.66 C 366.66 -14.98 361.97 -19.6 356.72 -19.6 C 351.19 -19.6 346.64 -15.12 346.64 -9.45 C 346.64 -3.85 351.4 0.49 356.72 0.49 C 362.39 0.49 366.66 -4.41 366.66 -9.66 Z M 364.07 -9.73 C 364.07 -5.46 360.92 -2.03 356.72 -2.03 C 352.66 -2.03 349.23 -5.32 349.23 -9.45 C 349.23 -13.58 352.45 -17.08 356.65 -17.08 C 360.64 -17.08 364.07 -13.86 364.07 -9.73 Z M 387.38 0 L 387.38 -19.18 L 384.79 -19.18 L 384.79 -8.61 C 384.79 -4.9 382.62 -2.03 378.91 -2.03 C 375.13 -2.03 373.1 -4.9 373.1 -8.26 L 373.1 -19.18 L 370.51 -19.18 L 370.51 -8.26 C 370.51 -3.92 371.98 -2.8 372.61 -2.17 C 374.01 -0.77 375.69 0.49 378.63 0.49 C 381.36 0.49 383.6 -0.56 384.93 -3.01 L 384.93 0.07 Z M 408.94 0 L 408.94 -10.85 C 408.94 -13.51 408.03 -15.75 406.35 -17.22 C 404.81 -18.69 402.71 -19.6 400.4 -19.6 C 397.46 -19.6 395.64 -17.99 394.45 -16.31 L 394.45 -19.18 L 392 -19.18 L 392 0 L 394.59 0 L 394.59 -10.78 C 394.59 -12.88 395.08 -14.42 396.2 -15.47 C 397.25 -16.45 398.65 -17.08 400.33 -17.08 C 404.04 -17.08 406.35 -14.42 406.35 -10.64 L 406.35 0 Z M 422.73 -16.8 L 422.73 -19.18 L 418.25 -19.18 L 418.25 -25.9 L 415.66 -25.9 L 415.66 -19.18 L 411.67 -19.18 L 411.67 -16.8 L 415.66 -16.8 L 415.66 0 L 418.25 0 L 418.25 -16.8 Z M 444.33 0 L 444.33 -19.18 L 441.88 -19.18 L 441.88 -15.4 C 441.81 -15.61 439.99 -19.6 434.32 -19.6 C 428.51 -19.6 424.1 -14.98 424.1 -9.66 C 424.1 -6.3 425.71 -3.99 425.92 -3.71 C 428.86 -0.42 432.08 0.49 434.46 0.49 C 437.4 0.49 440.48 -0.91 441.88 -3.71 L 441.88 0 Z M 441.88 -9.52 C 441.88 -5.6 438.59 -2.03 434.46 -2.03 C 430.33 -2.03 426.69 -5.32 426.69 -9.45 C 426.69 -13.65 430.12 -17.08 434.39 -17.08 C 438.66 -17.08 441.88 -13.72 441.88 -9.52 Z M 466.1 0 L 466.1 -10.85 C 466.1 -13.51 465.19 -15.75 463.51 -17.22 C 461.97 -18.69 459.87 -19.6 457.56 -19.6 C 454.62 -19.6 452.8 -17.99 451.61 -16.31 L 451.61 -19.18 L 449.16 -19.18 L 449.16 0 L 451.75 0 L 451.75 -10.78 C 451.75 -12.88 452.24 -14.42 453.36 -15.47 C 454.41 -16.45 455.81 -17.08 457.49 -17.08 C 461.2 -17.08 463.51 -14.42 463.51 -10.64 L 463.51 0 Z M 479.89 -16.8 L 479.89 -19.18 L 475.41 -19.18 L 475.41 -25.9 L 472.82 -25.9 L 472.82 -19.18 L 468.83 -19.18 L 468.83 -16.8 L 472.82 -16.8 L 472.82 0 L 475.41 0 L 475.41 -16.8 Z M 493.26 -5.67 C 493.26 -7.56 492.42 -9.24 490.32 -10.29 C 488.99 -10.92 487.66 -11.27 486.26 -11.83 C 485.14 -12.25 484.51 -13.3 484.51 -14.42 C 484.51 -16.03 485.84 -17.08 487.24 -17.08 C 488.85 -17.08 490.18 -16.03 490.18 -14.42 L 492.77 -14.42 C 492.77 -17.22 490.32 -19.6 487.45 -19.6 C 484.37 -19.6 481.92 -17.22 481.92 -14.21 C 481.92 -12.18 483.04 -10.85 484.23 -10.01 C 485.14 -9.45 487.52 -8.75 488.08 -8.54 C 490.46 -7.7 490.67 -6.09 490.67 -5.25 C 490.67 -3.29 489.2 -2.03 487.31 -2.03 C 485.35 -2.03 483.81 -3.64 483.81 -5.67 L 481.22 -5.67 C 481.22 -5.6 481.15 -5.46 481.15 -5.39 C 481.15 -1.96 484.16 0.49 487.03 0.49 C 490.74 0.49 493.26 -2.17 493.26 -5.67 Z" stroke-linecap="round" />
</g>
</g>
</g>
</svg>